<?xml version="1.0" encoding="UTF-8"?>
<svg version="1.1" xmlns="http://www.w3.org/2000/svg" width="24" height="24">
<path d="M0 0 C4.11680189 0.97686825 6.51266802 2.07812421 9.6875 4.875 C10.5625 8.125 10.5625 8.125 10.6875 10.875 C10.0275 10.875 9.3675 10.875 8.6875 10.875 C8.378125 10.00875 8.378125 10.00875 8.0625 9.125 C6.13722134 5.97454401 3.90898646 4.61460269 0.6875 2.875 C-2.09880587 2.875 -3.57396443 4.01167459 -6.0625 5.3125 C-9.11442649 8.78830517 -8.75657061 11.24806828 -8.5859375 15.73046875 C-8.5374698 17.85402779 -8.5374698 17.85402779 -7.3125 18.875 C-4.95936445 18.94771741 -2.60416332 18.95870868 -0.25 18.9375 C1.04035156 18.92847656 2.33070312 18.91945313 3.66015625 18.91015625 C4.65917969 18.89855469 5.65820312 18.88695313 6.6875 18.875 C7.3475 16.895 8.0075 14.915 8.6875 12.875 C9.3475 12.875 10.0075 12.875 10.6875 12.875 C10.8125 16.25 10.8125 16.25 10.6875 19.875 C8.06934261 22.49315739 6.18281662 22.13612488 2.61523438 22.1484375 C1.83470703 22.14070313 1.05417969 22.13296875 0.25 22.125 C-0.91499023 22.13660156 -0.91499023 22.13660156 -2.10351562 22.1484375 C-6.01302168 22.13496806 -7.99197032 22.08868645 -11.3125 19.875 C-12.02741664 15.50805086 -11.90464734 11.25363077 -11.3125 6.875 C-8.35469915 2.79803126 -5.20080109 -0.19625664 0 0 Z " fill="#8E6CEF" transform="translate(12.3125,1.125)"/>
<path d="M0 0 C0.66 0 1.32 0 2 0 C2 1.65 2 3.3 2 5 C1.34 5 0.68 5 0 5 C0 3.35 0 1.7 0 0 Z " fill="#8E6BEF" transform="translate(11,14)"/>
</svg>
