<?xml version="1.0" encoding="UTF-8"?>
<svg version="1.1" xmlns="http://www.w3.org/2000/svg" width="25" height="24">
<path d="M0 0 C2.375 1.5625 2.375 1.5625 4 4 C4.75 7.75 4.75 7.75 5 11 C4.01 11 3.02 11 2 11 C1.34 8.69 0.68 6.38 0 4 C-2.34533951 3.23043864 -2.34533951 3.23043864 -5 3 C-6.91325006 3.91015769 -6.91325006 3.91015769 -8 6 C-8.41434251 8.32031805 -8.74889902 10.65639085 -9 13 C-9.33 13.99 -9.66 14.98 -10 16 C-5.71 16 -1.42 16 3 16 C3.33 15.01 3.66 14.02 4 13 C4.99 13.33 5.98 13.66 7 14 C6.875 15.8125 6.875 15.8125 6 18 C3 19.6875 3 19.6875 0 21 C-0.33 21.33 -0.66 21.66 -1 22 C-5.27774535 22.47530504 -7.4875022 21.37330933 -11 19 C-11.66 18.67 -12.32 18.34 -13 18 C-12.66666667 15.66666667 -12.33333333 13.33333333 -12 11 C-11.896875 9.783125 -11.79375 8.56625 -11.6875 7.3125 C-10.27257077 0.49511371 -6.6696893 -0.95281276 0 0 Z " fill="#292929" transform="translate(16,1)"/>
<path d="M0 0 C0.66 0 1.32 0 2 0 C2 1.98 2 3.96 2 6 C1.01 5.67 0.02 5.34 -1 5 C-0.67 3.35 -0.34 1.7 0 0 Z " fill="#2C2C2C" transform="translate(12,5)"/>
</svg>
