<?xml version="1.0" encoding="UTF-8"?>
<svg version="1.1" xmlns="http://www.w3.org/2000/svg" width="24" height="24">
<path d="M0 0 C1.32 0 2.64 0 4 0 C4 0.66 4 1.32 4 2 C3.01 2.66 2.02 3.32 1 4 C1.33 5.32 1.66 6.64 2 8 C2.99 7.67 3.98 7.34 5 7 C5.33 5.35 5.66 3.7 6 2 C6.66 2 7.32 2 8 2 C8.80967438 4.91482778 9.21845993 6.46113217 8.0625 9.3125 C7.711875 9.869375 7.36125 10.42625 7 11 C7.66 11.391875 8.32 11.78375 9 12.1875 C11 14 11 14 11.5 16.5 C11 19 11 19 9.4375 20.8125 C6.07434531 22.45095998 3.70232314 22.38971822 0 22 C-2.9375 20.8125 -2.9375 20.8125 -5 19 C-5.5625 16.5625 -5.5625 16.5625 -5 14 C-3 11.6875 -3 11.6875 -1 10 C-1.66 9.01 -2.32 8.02 -3 7 C-2.6758631 3.67759676 -2.39223697 2.39223697 0 0 Z M-3 16 C-1.33345392 19.13021208 -1.33345392 19.13021208 1.3125 19.875 C4.72792114 20.0338568 6.26372532 18.95448191 9 17 C7.33345392 13.86978792 7.33345392 13.86978792 4.6875 13.125 C1.27207886 12.9661432 -0.26372532 14.04551809 -3 16 Z " fill="#2B2B2B" transform="translate(9,1)"/>
</svg>
