<?xml version="1.0" encoding="UTF-8"?>
<svg version="1.1" xmlns="http://www.w3.org/2000/svg" width="25" height="24">
<path d="M0 0 C1.03447266 0.01160156 1.03447266 0.01160156 2.08984375 0.0234375 C2.77949219 0.01570312 3.46914062 0.00796875 4.1796875 0 C9.33651082 0.02010457 9.33651082 0.02010457 11.58984375 2.2734375 C11.71484375 4.8984375 11.71484375 4.8984375 11.58984375 7.2734375 C10.92984375 7.2734375 10.26984375 7.2734375 9.58984375 7.2734375 C8.92984375 5.9534375 8.26984375 4.6334375 7.58984375 3.2734375 C3.62984375 3.2734375 -0.33015625 3.2734375 -4.41015625 3.2734375 C-4.41015625 7.8934375 -4.41015625 12.5134375 -4.41015625 17.2734375 C0.5083513 18.3426376 0.5083513 18.3426376 5.08984375 17.7109375 C7.58984375 17.2734375 7.58984375 17.2734375 9.58984375 18.2734375 C9.58984375 15.3034375 9.58984375 12.3334375 9.58984375 9.2734375 C10.24984375 9.2734375 10.90984375 9.2734375 11.58984375 9.2734375 C11.58984375 12.9034375 11.58984375 16.5334375 11.58984375 20.2734375 C7.58984375 21.2734375 7.58984375 21.2734375 4.58984375 21.2734375 C3.74421875 21.4796875 2.89859375 21.6859375 2.02734375 21.8984375 C1.22296875 22.0221875 0.41859375 22.1459375 -0.41015625 22.2734375 C-1.07015625 21.6134375 -1.73015625 20.9534375 -2.41015625 20.2734375 C-4.46412351 20.68273736 -4.46412351 20.68273736 -6.41015625 21.2734375 C-8.56748458 19.11610917 -7.59536544 14.32544997 -7.59765625 11.3359375 C-7.60990234 10.49869141 -7.62214844 9.66144531 -7.63476562 8.79882812 C-7.63669922 7.99767578 -7.63863281 7.19652344 -7.640625 6.37109375 C-7.64473389 5.63383057 -7.64884277 4.89656738 -7.65307617 4.13696289 C-7.06451107 -0.37813002 -3.78895345 0.01477175 0 0 Z " fill="#292929" transform="translate(10.41015625,0.7265625)"/>
<path d="M0 0 C3.3 0 6.6 0 10 0 C10 0.66 10 1.32 10 2 C6.7 2 3.4 2 0 2 C0 1.34 0 0.68 0 0 Z " fill="#282828" transform="translate(7,6)"/>
<path d="M0 0 C2.64 0 5.28 0 8 0 C8 0.66 8 1.32 8 2 C5.36 2 2.72 2 0 2 C0 1.34 0 0.68 0 0 Z " fill="#282828" transform="translate(8,10)"/>
</svg>
